<mxfile host="app.diagrams.net" modified="2023-12-17T21:27:22.981Z" agent="Mozilla/5.0 (Windows NT 10.0; Win64; x64) AppleWebKit/537.36 (KHTML, like Gecko) Chrome/120.0.0.0 Safari/537.36" version="22.1.11" etag="uU2UrrUe87n99UvdEkbb" type="github">
  <diagram name="Page-1" id="mkfcO-E9KibOjNzZ1jUO">
    <mxGraphModel>
      <root>
        <mxCell id="0" />
        <mxCell id="1" parent="0" />
      </root>
    </mxGraphModel>
  </diagram>
</mxfile>
